<?xml version="1.0" encoding="UTF-8" standalone="no"?>
<svg
   xmlns:dc="http://purl.org/dc/elements/1.1/"
   xmlns:cc="http://creativecommons.org/ns#"
   xmlns:rdf="http://www.w3.org/1999/02/22-rdf-syntax-ns#"
   xmlns:svg="http://www.w3.org/2000/svg"
   xmlns="http://www.w3.org/2000/svg"
   xmlns:sodipodi="http://sodipodi.sourceforge.net/DTD/sodipodi-0.dtd"
   xmlns:inkscape="http://www.inkscape.org/namespaces/inkscape"
   width="300pt"
   height="60pt"
   viewBox="0 0 300 60"
   version="1.1"
   id="svg3051"
   inkscape:version="0.48.4 r9939"
   sodipodi:docname="nav_icons.svg">
  <metadata
     id="metadata3077">
    <rdf:RDF>
      <cc:Work
         rdf:about="">
        <dc:format>image/svg+xml</dc:format>
        <dc:type
           rdf:resource="http://purl.org/dc/dcmitype/StillImage" />
        <dc:title />
      </cc:Work>
    </rdf:RDF>
  </metadata>
  <defs
     id="defs3075" />
  <sodipodi:namedview
     pagecolor="#ffffff"
     bordercolor="#666666"
     borderopacity="1"
     objecttolerance="10"
     gridtolerance="10"
     guidetolerance="10"
     inkscape:pageopacity="0"
     inkscape:pageshadow="2"
     inkscape:window-width="1242"
     inkscape:window-height="634"
     id="namedview3073"
     showgrid="false"
     inkscape:zoom="1.4425577"
     inkscape:cx="322.97482"
     inkscape:cy="-76.600701"
     inkscape:window-x="38"
     inkscape:window-y="25"
     inkscape:window-maximized="0"
     inkscape:current-layer="svg3051" />
  <g
     id="g3183"
     style="fill:#ffffff">
    <path
       id="path3055"
       transform="scale(0.8,0.8)"
       d="M 32.46875 1.03125 C 31.656592 1.0502197 30.834375 1.1 30.03125 1.15625 C 19.58125 1.56875 10.08125 8.3375 4.96875 17.25 C 0.50625 24.475 0.325 33.5 1.8125 41.625 C 4.7625 53.175 14.575 62.5875 26.25 65.0625 C 34.7375 67.0375 43.5125 64.9125 51.0625 60.875 C 55.125 64.95 59.0125 69.2375 63.3125 73.0625 C 66.625 74.9125 71.78125 74.9 74.15625 71.625 C 74.99375 68.8875 75.28125 65.3375 73.03125 63.1875 C 69.11875 59.025 65 55.075 60.9375 51.0625 C 63.475 45.6125 66 39.9 65.75 33.75 C 66.225 21.925 59.30625 10.275 48.90625 4.75 C 43.984375 1.7640625 38.153857 0.89846191 32.46875 1.03125 z M 33.59375 10.1875 C 37.388306 10.168579 41.15625 10.820313 44.4375 12.8125 C 53.0875 17.6375 58.4125 28.16875 56.0625 37.96875 C 53.9875 48.75625 43.44375 57.1 32.46875 56.625 C 22.58125 56.3125 13.5375 49.03125 10.8125 39.59375 C 10.0125 35.39375 9.98125 31 10.84375 26.8125 C 13.06875 19.2875 19.30625 13.0125 26.84375 10.8125 C 29.032812 10.4375 31.317017 10.198853 33.59375 10.1875 z "
       style="fill:#ffffff" />
    <path
       id="path3057"
       transform="scale(0.8,0.8)"
       d="M 108.53125 0.9375 C 107.76907 0.94888306 107.01328 0.990625 106.25 1.0625 C 89.8125 1.1375 75.6625 16.275 75.625 32.5 C 74.975 47.325 85.95 61.55 100.375 64.875 C 109.1 67.1875 118.225 64.99375 126.0625 60.90625 C 130.1 65.00625 134.01875 69.24375 138.28125 73.09375 C 141.56875 74.90625 146.825 74.91875 149.0625 71.53125 C 150.0625 68.85625 150.1625 65.36875 148 63.21875 C 144.1 59.01875 139.9125 55.075 135.8125 51.0625 C 141.5375 40.825 142.725 27.6875 136.5625 17.375 C 131.10156 7.296875 119.96394 0.76675415 108.53125 0.9375 z M 108.5625 10.1875 C 112.35596 10.179443 116.13281 10.84375 119.40625 12.84375 C 125.14375 16.26875 129.86875 21.9625 130.96875 28.6875 C 133.80625 40.475 125.35 53.225 113.6875 55.875 C 101.575 59.3375 87.9375 50.54375 85.5 38.34375 C 84.975 33.09375 84.725 27.39375 87.4375 22.65625 C 90.475 17.06875 95.65 12.55 101.8125 10.8125 C 104.00156 10.446875 106.28643 10.192334 108.5625 10.1875 z "
       style="fill:#ffffff" />
    <path
       inkscape:connector-curvature="0"
       style="fill:#ffffff"
       id="path3059"
       d="m 147.91,11.92 c 3.94,-3.84 7.48,-8.11 12,-11.3 2.86,2.08 5.36,4.59 7.55,7.35 -6.75,7.72 -14.65,14.34 -21.44,22.02 6.97,7.69 14.77,14.57 21.82,22.19 -2.24,2.75 -4.78,5.24 -7.75,7.19 -4,-3.13 -7.41,-6.9 -10.98,-10.49 -6.18,-6.37 -12.79,-12.34 -18.71,-18.97 5.33,-6.47 11.73,-11.95 17.51,-17.99 z" />
    <path
       inkscape:connector-curvature="0"
       style="fill:#ffffff"
       id="path3061"
       d="m 191.16,7.82 c 2.24,-2.75 4.78,-5.24 7.75,-7.19 5.09,4.03 9.31,8.99 13.98,13.48 5.2,5.36 10.78,10.36 15.71,15.98 -5.98,7.16 -13.08,13.26 -19.51,20 -3.18,3.26 -6.26,6.65 -10,9.29 -2.85,-2.09 -5.36,-4.6 -7.56,-7.36 C 198.29,44.31 206.2,37.7 212.97,30 206.01,22.31 198.19,15.44 191.16,7.82 z" />
    <path
       style="fill:#ffffff"
       inkscape:connector-curvature="0"
       id="path3063"
       d="m 241.13,24.99 c 2.33,-13.46 15.1,-24.47 28.91,-23.89 7.47,-0.45 14.43,2.98 20.1,7.56 3.41,-1.7 5.64,-5.64 8.84,-7.95 0.58,7.64 0.58,15.33 0.08,22.98 -7.71,-0.03 -15.41,0.05 -23.12,-0.05 2.93,-2.95 5.86,-5.9 8.79,-8.86 -3.82,-3.24 -8.56,-5.69 -13.68,-5.63 -7.99,-0.6 -16.03,3.94 -19.73,11.02 -3.55,6.28 -3.56,14.32 -0.03,20.61 3.68,7.11 11.73,11.7 19.75,11.08 5.31,0.19 9.93,-2.71 14.06,-5.7 2.37,1 3.83,3.45 5.75,5.1 -5.65,6.47 -14.45,8.95 -22.81,8.19 -17.2,0.41 -30.61,-18.14 -26.91,-34.46 z" />
    <path
       style="fill:#ffffff"
       inkscape:connector-curvature="0"
       id="path3069"
       d="m 22.93,15.45 c 2.45,-0.02 4.9,-0.02 7.35,-0.04 0.07,2.44 0.07,4.89 0.08,7.33 2.44,0.02 4.87,0.04 7.3,0.07 0.04,2.49 0.04,4.99 0.06,7.48 -2.45,0.04 -4.9,0.06 -7.35,0.07 -0.01,2.45 -0.03,4.91 -0.06,7.36 -2.5,-0.01 -5,-0.02 -7.5,-0.06 -0.02,-2.44 -0.05,-4.89 -0.07,-7.33 -2.43,0.01 -4.85,0 -7.28,-0.01 -0.02,-2.51 -0.02,-5.03 0.05,-7.54 2.4,-0.01 4.81,-0.01 7.21,0 0.02,-2.45 0.08,-4.89 0.21,-7.33 z" />
    <path
       style="fill:#ffffff"
       inkscape:connector-curvature="0"
       id="path3071"
       d="m 75.42,22.83 c 7.39,-0.11 14.79,-0.1 22.18,-0.02 0.03,2.49 0.04,4.97 0.05,7.45 -7.42,0.08 -14.85,0.09 -22.28,0 0.01,-2.48 0.02,-4.96 0.05,-7.43 z" />
  </g>
</svg>
